<svg width="87" height="88" viewBox="0 0 87 88" fill="none" xmlns="http://www.w3.org/2000/svg">
<path d="M43.4999 87.1292C67.2971 87.1292 87 67.4359 87 43.6506C87 19.9077 67.2544 0.171875 43.4573 0.171875C19.7029 0.171875 0 19.9077 0 43.6506C0 67.4359 19.7456 87.1292 43.4999 87.1292ZM19.4044 58.2714V46.5491C19.4044 43.1817 20.0867 41.2209 22.006 38.7913L23.7543 36.5746C24.5221 32.8661 25.8015 29.0297 26.5264 27.5378C27.6353 25.2361 29.725 23.872 32.4118 23.531C33.8192 23.3606 38.2544 23.2326 43.5427 23.2326C48.7882 23.2326 53.2662 23.3606 54.6308 23.531C57.3603 23.9146 59.45 25.2361 60.5162 27.5378C61.2412 29.0297 62.5205 32.8661 63.3309 36.5746L65.0367 38.7913C66.9559 41.2209 67.6382 43.1817 67.6382 46.5491V58.2714C67.6382 59.7633 66.4441 60.9568 64.9514 60.9568H62.5205C60.9853 60.9568 59.7911 59.7633 59.7911 58.2714V54.9039C55.2705 55.1597 48.7882 55.3301 43.5427 55.3301C38.297 55.3301 31.7721 55.1597 27.2515 54.9039V58.2714C27.2515 59.7633 26.0574 60.9568 24.5647 60.9568H22.1338C20.5985 60.9568 19.4044 59.7633 19.4044 58.2714ZM28.9573 34.6565C28.7868 35.2958 29.0427 35.5942 29.8102 35.5516C32.9662 35.2958 36.6765 35.1252 43.5427 35.1252C50.3661 35.1252 54.119 35.2958 57.2324 35.5516C57.9999 35.5942 58.2985 35.2958 58.0854 34.6565C57.6588 32.5252 56.7632 29.7971 56.1661 28.7739C55.5691 27.8362 55.0574 27.4526 53.9912 27.3248C52.5411 27.069 49.3001 27.0264 43.5427 27.0264C37.7426 27.0264 34.5015 27.1116 33.0941 27.3248C32.028 27.4526 31.4736 27.8362 30.9191 28.7739C30.3221 29.8397 29.4265 32.5252 28.9573 34.6565ZM25.5455 46.5917C25.5455 48.4246 26.9956 49.874 28.8294 49.874C30.6632 49.874 32.1132 48.4246 32.1132 46.5917C32.1132 44.7588 30.6632 43.3522 28.8294 43.3522C26.9956 43.3522 25.5455 44.7588 25.5455 46.5917ZM35.7809 46.7197C35.7809 48.1262 36.7617 49.1068 38.1691 49.1068H48.9161C50.2809 49.1068 51.2617 48.1262 51.2617 46.7197C51.2617 45.3556 50.2809 44.3752 48.9161 44.3752H38.1691C36.7617 44.3752 35.7809 45.3556 35.7809 46.7197ZM54.972 46.5917C54.972 48.4246 56.3794 49.874 58.2132 49.874C60.0897 49.874 61.5397 48.4246 61.5397 46.5917C61.5397 44.7588 60.0897 43.3522 58.2132 43.3522C56.3794 43.3522 54.972 44.7588 54.972 46.5917Z" fill="#84AF8C"/>
</svg>
