<svg width="30" height="30" viewBox="0 0 30 30" fill="none" xmlns="http://www.w3.org/2000/svg">
<g clip-path="url(#clip0_2270_7923)">
<path d="M28.5603 8.58388C27.3357 5.98817 25.3962 3.80849 22.9529 2.27919C19.5544 0.158093 15.5291 -0.515735 11.6267 0.386609C7.72435 1.2831 4.40209 3.65028 2.28099 7.04872C0.154045 10.4472 -0.519783 14.4667 0.382561 18.3749C1.2849 22.2773 3.65209 25.5995 7.04467 27.7206C9.43529 29.2148 12.1775 30.0058 14.9841 30.0058H15.1658C17.9607 29.9706 20.6794 29.162 23.0349 27.6737C23.7205 27.2401 23.9197 26.3378 23.4861 25.6523C23.0525 24.9667 22.1501 24.7675 21.4646 25.2011C19.572 26.4023 17.3806 27.0526 15.1306 27.0819C12.822 27.1112 10.5662 26.4726 8.5974 25.248C5.86107 23.537 3.95678 20.8651 3.23607 17.7245C2.51537 14.5839 3.05443 11.3495 4.76537 8.61317C8.29271 2.9706 15.7576 1.24794 21.4001 4.77528C23.3689 6.00575 24.9275 7.75771 25.9119 9.84364C26.8728 11.8769 27.2478 14.1327 26.9959 16.3593C26.908 17.162 27.4822 17.8886 28.2908 17.9765C29.0935 18.0644 29.8201 17.4901 29.908 16.6816C30.2185 13.9101 29.7498 11.1093 28.5603 8.58388Z" fill="#3F3F3F"/>
<path d="M19.8467 9.91455L12.7803 16.981L10.1612 14.3618C9.58691 13.7876 8.66114 13.7876 8.08692 14.3618C7.5127 14.936 7.5127 15.8618 8.08692 16.436L11.7432 20.0923C12.0303 20.3794 12.4053 20.52 12.7803 20.52C13.1553 20.52 13.5303 20.3794 13.8174 20.0923L21.9151 11.9888C22.4893 11.4146 22.4893 10.4888 21.9151 9.91455C21.3409 9.34619 20.4151 9.34619 19.8467 9.91455Z" fill="#3F3F3F"/>
</g>
<defs>
<clipPath id="clip0_2270_7923">
<rect width="30" height="30" fill="white"/>
</clipPath>
</defs>
</svg>
