<svg width="37" height="37" viewBox="0 0 37 37" fill="none" xmlns="http://www.w3.org/2000/svg">
<path d="M0.603769 36.3968C1.42041 37.1896 2.77371 37.1896 3.56702 36.3968L18.5 21.4732L33.4329 36.3968C34.2263 37.1896 35.6029 37.2129 36.3962 36.3968C37.1895 35.5806 37.1895 34.2515 36.3962 33.4587L21.4633 18.5118L36.3962 3.58825C37.1895 2.79543 37.2129 1.44299 36.3962 0.650171C35.5796 -0.165961 34.2263 -0.165961 33.4329 0.650171L18.5 15.5737L3.56702 0.650171C2.77371 -0.165961 1.39708 -0.189279 0.603769 0.650171C-0.189548 1.46631 -0.189548 2.79543 0.603769 3.58825L15.5367 18.5118L0.603769 33.4587C-0.189548 34.2515 -0.21288 35.604 0.603769 36.3968Z" fill="black" fill-opacity="0.85"/>
</svg>
