<svg width="43" height="43" viewBox="0 0 43 43" fill="none" xmlns="http://www.w3.org/2000/svg">
<rect width="43" height="43" rx="10" fill="#84AF8C"/>
<g clip-path="url(#clip0_2253_6043)">
<path d="M11.509 30.9361C11.9651 31.3788 12.7208 31.3788 13.1638 30.9361L21.503 22.6021L29.8422 30.9361C30.2853 31.3788 31.054 31.3918 31.497 30.9361C31.9401 30.4803 31.9401 29.7381 31.497 29.2953L23.1579 20.9484L31.497 12.6144C31.9401 12.1717 31.9531 11.4164 31.497 10.9737C31.041 10.5179 30.2853 10.5179 29.8422 10.9737L21.503 19.3076L13.1638 10.9737C12.7208 10.5179 11.9521 10.5049 11.509 10.9737C11.066 11.4294 11.066 12.1717 11.509 12.6144L19.8482 20.9484L11.509 29.2953C11.066 29.7381 11.053 30.4933 11.509 30.9361Z" fill="white" fill-opacity="0.85"/>
</g>
<defs>
<clipPath id="clip0_2253_6043">
<rect width="20.6623" height="20.6623" fill="white" transform="translate(11.1719 10.6104)"/>
</clipPath>
</defs>
</svg>
