<svg width="308" height="62" viewBox="0 0 308 62" fill="none" xmlns="http://www.w3.org/2000/svg">
<path d="M74.2224 7.864C74.3397 7.864 74.665 7.864 75.1984 7.864C75.7424 7.864 76.377 7.864 77.1024 7.864C77.8384 7.864 78.569 7.86933 79.2944 7.88C80.0304 7.88 80.6437 7.88533 81.1344 7.896C83.9397 7.96 86.2277 8.46133 87.9984 9.4C89.769 10.3387 91.065 11.6507 91.8864 13.336C92.7184 15.0213 93.1344 17.016 93.1344 19.32C93.1344 21.72 92.697 23.7947 91.8224 25.544C90.9477 27.2827 89.609 28.6267 87.8064 29.576C86.0144 30.5253 83.737 31 80.9744 31H74.2224V7.864ZM78.9264 11.64V27.224H81.0704C82.393 27.224 83.593 26.968 84.6704 26.456C85.7584 25.944 86.6277 25.1067 87.2784 23.944C87.929 22.7813 88.2544 21.2293 88.2544 19.288C88.2544 17.4853 87.9664 16.024 87.3904 14.904C86.8144 13.7733 85.993 12.9467 84.9264 12.424C83.8597 11.9013 82.5957 11.64 81.1344 11.64H78.9264ZM97.2536 7.864H112.998L112.982 11.768H101.958V17.576H111.51V21.4H101.958V31H97.2536V7.864ZM116.879 31V7.864H123.663L128.959 24.36L134.303 7.864H141.071V31H136.351V13.304L130.783 31H127.119L121.583 13.384V31H116.879ZM170.987 31H166.139L162.379 22.088H157.691V31H153.035V7.864H162.795C164.64 7.864 166.15 8.15733 167.323 8.744C168.496 9.33067 169.36 10.1467 169.915 11.192C170.47 12.2267 170.747 13.4213 170.747 14.776C170.747 15.992 170.555 17.0213 170.171 17.864C169.798 18.696 169.302 19.3893 168.683 19.944C168.075 20.4987 167.408 20.952 166.683 21.304L170.987 31ZM161.963 18.488C163.211 18.488 164.198 18.152 164.923 17.48C165.659 16.808 166.027 15.944 166.027 14.888C166.027 13.8213 165.675 12.9787 164.971 12.36C164.267 11.7413 163.376 11.432 162.299 11.432H157.691V18.488H161.963ZM177.97 23.8C177.96 24.6427 178.093 25.3787 178.37 26.008C178.648 26.6267 179.048 27.1067 179.57 27.448C180.104 27.7787 180.744 27.944 181.49 27.944C182.29 27.944 182.989 27.7733 183.586 27.432C184.194 27.0907 184.616 26.5307 184.85 25.752H189.058C188.877 26.9253 188.408 27.928 187.65 28.76C186.904 29.592 185.997 30.2267 184.93 30.664C183.864 31.1013 182.754 31.32 181.602 31.32C179.97 31.32 178.53 30.9787 177.282 30.296C176.045 29.6027 175.08 28.6267 174.386 27.368C173.693 26.1093 173.346 24.6267 173.346 22.92C173.346 21.2667 173.661 19.7787 174.29 18.456C174.92 17.1227 175.832 16.072 177.026 15.304C178.232 14.5253 179.677 14.136 181.362 14.136C183.048 14.136 184.461 14.4933 185.602 15.208C186.754 15.912 187.618 16.8987 188.194 18.168C188.781 19.4267 189.074 20.8827 189.074 22.536V23.8H177.97ZM177.954 21.016H184.706C184.706 20.3547 184.584 19.7467 184.338 19.192C184.093 18.6373 183.72 18.2 183.218 17.88C182.728 17.56 182.109 17.4 181.362 17.4C180.637 17.4 180.018 17.576 179.506 17.928C179.005 18.2693 178.621 18.7173 178.354 19.272C178.088 19.8267 177.954 20.408 177.954 21.016ZM199.763 36.472C196.819 36.472 194.579 36.0987 193.043 35.352C191.518 34.6053 190.755 33.624 190.755 32.408C190.755 31.8427 190.904 31.368 191.203 30.984C191.502 30.6 191.848 30.296 192.243 30.072C192.648 29.8373 193.016 29.6613 193.347 29.544C193.688 29.416 193.896 29.3307 193.971 29.288C193.8 29.192 193.555 29.0533 193.235 28.872C192.915 28.68 192.616 28.424 192.339 28.104C192.072 27.7733 191.939 27.3467 191.939 26.824C191.939 26.2373 192.216 25.6933 192.771 25.192C193.336 24.6907 194.19 24.344 195.331 24.152C194.243 23.64 193.416 22.9467 192.851 22.072C192.286 21.1973 192.003 20.3013 192.003 19.384C192.003 18.296 192.344 17.3627 193.027 16.584C193.71 15.8053 194.638 15.2133 195.811 14.808C196.995 14.4027 198.334 14.2 199.827 14.2C200.968 14.2 201.902 14.3227 202.627 14.568C203.352 14.8027 204.024 15.112 204.643 15.496C204.888 15.4 205.214 15.2773 205.619 15.128C206.024 14.968 206.462 14.7973 206.931 14.616C207.4 14.424 207.859 14.2373 208.307 14.056C208.755 13.864 209.155 13.6933 209.507 13.544L209.491 17.16L206.627 17.624C206.744 17.912 206.835 18.2213 206.899 18.552C206.963 18.8827 206.995 19.1547 206.995 19.368C206.995 20.328 206.712 21.224 206.147 22.056C205.592 22.888 204.755 23.56 203.635 24.072C202.526 24.584 201.15 24.84 199.507 24.84C199.304 24.84 199.032 24.8347 198.691 24.824C198.36 24.8133 198.088 24.7973 197.875 24.776C197.246 24.808 196.814 24.888 196.579 25.016C196.344 25.144 196.227 25.2933 196.227 25.464C196.227 25.72 196.467 25.8907 196.947 25.976C197.427 26.0507 198.152 26.12 199.123 26.184C199.464 26.2053 199.939 26.232 200.547 26.264C201.155 26.296 201.827 26.3387 202.563 26.392C204.59 26.5307 206.099 27.032 207.091 27.896C208.094 28.7493 208.595 29.8267 208.595 31.128C208.595 32.6747 207.859 33.9493 206.387 34.952C204.926 35.9653 202.718 36.472 199.763 36.472ZM200.515 33.864C201.816 33.864 202.744 33.704 203.299 33.384C203.854 33.064 204.131 32.6053 204.131 32.008C204.131 31.5067 203.918 31.1013 203.491 30.792C203.064 30.472 202.44 30.2853 201.619 30.232L197.827 29.976C197.336 29.9547 196.899 30.0293 196.515 30.2C196.142 30.3707 195.848 30.6053 195.635 30.904C195.432 31.2027 195.331 31.5227 195.331 31.864C195.331 32.5573 195.752 33.064 196.595 33.384C197.438 33.704 198.744 33.864 200.515 33.864ZM199.635 22.232C200.52 22.232 201.23 21.992 201.763 21.512C202.307 21.0213 202.579 20.36 202.579 19.528C202.579 18.664 202.307 17.9707 201.763 17.448C201.23 16.9253 200.52 16.664 199.635 16.664C198.76 16.664 198.046 16.9253 197.491 17.448C196.947 17.9707 196.675 18.664 196.675 19.528C196.675 20.3493 196.936 21.0053 197.459 21.496C197.992 21.9867 198.718 22.232 199.635 22.232ZM216.897 14.456V31H212.433V14.456H216.897ZM216.945 7.88V12.088H212.401V7.88H216.945ZM228.234 31.32C226.613 31.32 225.2 30.9733 223.994 30.28C222.8 29.5867 221.872 28.6053 221.21 27.336C220.56 26.0667 220.234 24.5627 220.234 22.824C220.234 21.0853 220.56 19.5653 221.21 18.264C221.872 16.9627 222.8 15.9493 223.994 15.224C225.2 14.4987 226.618 14.136 228.25 14.136C229.882 14.136 231.296 14.4933 232.49 15.208C233.685 15.912 234.608 16.9147 235.258 18.216C235.909 19.5173 236.234 21.0533 236.234 22.824C236.234 24.488 235.914 25.96 235.274 27.24C234.645 28.5093 233.733 29.5067 232.538 30.232C231.354 30.9573 229.92 31.32 228.234 31.32ZM228.25 27.848C229.072 27.848 229.733 27.608 230.234 27.128C230.736 26.648 231.098 26.0187 231.322 25.24C231.557 24.4507 231.674 23.592 231.674 22.664C231.674 21.7893 231.568 20.9627 231.354 20.184C231.152 19.4053 230.8 18.776 230.298 18.296C229.797 17.816 229.114 17.576 228.25 17.576C227.429 17.576 226.762 17.8053 226.25 18.264C225.749 18.712 225.381 19.3253 225.146 20.104C224.912 20.872 224.794 21.7253 224.794 22.664C224.794 23.528 224.901 24.36 225.114 25.16C225.328 25.9493 225.685 26.5947 226.186 27.096C226.688 27.5973 227.376 27.848 228.25 27.848ZM239.349 31V14.456H243.941V16.792C244.197 16.3867 244.528 15.9973 244.933 15.624C245.349 15.24 245.872 14.9253 246.501 14.68C247.13 14.4347 247.877 14.312 248.741 14.312C249.754 14.312 250.698 14.5093 251.573 14.904C252.458 15.2987 253.173 15.9227 253.717 16.776C254.261 17.6187 254.533 18.7227 254.533 20.088V31H249.861V20.664C249.861 19.768 249.594 19.096 249.061 18.648C248.528 18.2 247.877 17.976 247.109 17.976C246.597 17.976 246.101 18.0667 245.621 18.248C245.152 18.4293 244.768 18.7013 244.469 19.064C244.17 19.4267 244.021 19.8747 244.021 20.408V31H239.349ZM262.993 31.32C261.937 31.32 260.988 31.1227 260.145 30.728C259.302 30.3333 258.636 29.7627 258.145 29.016C257.654 28.2587 257.409 27.3413 257.409 26.264C257.409 24.4507 258.086 23.0747 259.441 22.136C260.796 21.1867 262.934 20.696 265.857 20.664L267.921 20.632V19.64C267.921 18.8827 267.697 18.3013 267.249 17.896C266.812 17.48 266.129 17.2773 265.201 17.288C264.518 17.2987 263.868 17.4587 263.249 17.768C262.641 18.0773 262.225 18.616 262.001 19.384H258.113C258.177 18.1893 258.524 17.208 259.153 16.44C259.782 15.6613 260.636 15.0853 261.713 14.712C262.801 14.328 264.033 14.136 265.409 14.136C267.105 14.136 268.465 14.3493 269.489 14.776C270.513 15.192 271.254 15.7947 271.713 16.584C272.172 17.3627 272.401 18.2907 272.401 19.368V31H268.497L268.113 28.152C267.548 29.3467 266.838 30.1733 265.985 30.632C265.142 31.0907 264.145 31.32 262.993 31.32ZM264.561 28.248C264.988 28.248 265.398 28.1733 265.793 28.024C266.198 27.864 266.556 27.656 266.865 27.4C267.185 27.1333 267.441 26.8347 267.633 26.504C267.825 26.1733 267.921 25.832 267.921 25.48V23.032L266.241 23.064C265.462 23.0747 264.737 23.1707 264.065 23.352C263.393 23.5227 262.849 23.8053 262.433 24.2C262.028 24.5947 261.825 25.128 261.825 25.8C261.825 26.568 262.092 27.1707 262.625 27.608C263.158 28.0347 263.804 28.248 264.561 28.248ZM281.817 31.288C280.601 31.288 279.635 31.144 278.921 30.856C278.206 30.568 277.678 30.1893 277.337 29.72C276.995 29.24 276.777 28.712 276.681 28.136C276.585 27.5493 276.537 26.9573 276.537 26.36V7.224H281.113V25.784C281.113 26.392 281.241 26.888 281.497 27.272C281.763 27.6453 282.259 27.8747 282.985 27.96L283.769 28.008V30.888C283.449 30.9947 283.123 31.0853 282.793 31.16C282.462 31.2453 282.137 31.288 281.817 31.288Z" fill="#5C5C5C"/>
<path d="M78.6187 50.7867H74.8517V39.1503H78.738C79.8782 39.1503 80.8573 39.3833 81.6755 39.8492C82.4937 40.3113 83.1206 40.9761 83.5562 41.8435C83.9956 42.7071 84.2153 43.7431 84.2153 44.9515C84.2153 46.1636 83.9937 47.2052 83.5505 48.0765C83.1111 48.9477 82.4748 49.6181 81.6414 50.0878C80.8081 50.5537 79.8005 50.7867 78.6187 50.7867ZM76.6073 49.2526H78.5221C79.4085 49.2526 80.1452 49.0859 80.7323 48.7526C81.3195 48.4155 81.7588 47.9287 82.0505 47.2924C82.3422 46.6522 82.488 45.8719 82.488 44.9515C82.488 44.0386 82.3422 43.264 82.0505 42.6276C81.7626 41.9912 81.3327 41.5083 80.7607 41.1787C80.1888 40.8492 79.4785 40.6844 78.6301 40.6844H76.6073V49.2526ZM86.2622 50.7867V42.0594H87.961V50.7867H86.2622ZM87.1201 40.7128C86.8247 40.7128 86.5709 40.6143 86.3588 40.4174C86.1504 40.2166 86.0463 39.978 86.0463 39.7015C86.0463 39.4212 86.1504 39.1825 86.3588 38.9855C86.5709 38.7848 86.8247 38.6844 87.1201 38.6844C87.4156 38.6844 87.6675 38.7848 87.8758 38.9855C88.0879 39.1825 88.194 39.4212 88.194 39.7015C88.194 39.978 88.0879 40.2166 87.8758 40.4174C87.6675 40.6143 87.4156 40.7128 87.1201 40.7128ZM94.0079 50.9628C93.1481 50.9628 92.4075 50.7791 91.7863 50.4117C91.1689 50.0405 90.6916 49.5196 90.3545 48.8492C90.0212 48.1749 89.8545 47.3852 89.8545 46.4799C89.8545 45.5859 90.0212 44.798 90.3545 44.1162C90.6916 43.4344 91.1613 42.9022 91.7636 42.5196C92.3696 42.1371 93.078 41.9458 93.8886 41.9458C94.381 41.9458 94.8583 42.0272 95.3204 42.1901C95.7825 42.353 96.1973 42.6087 96.5647 42.9571C96.9321 43.3056 97.2219 43.7583 97.434 44.3151C97.6462 44.8681 97.7522 45.5405 97.7522 46.3321V46.9344H90.8147V45.6617H96.0874C96.0874 45.2147 95.9965 44.8189 95.8147 44.4742C95.6329 44.1257 95.3772 43.8511 95.0477 43.6503C94.7219 43.4496 94.3393 43.3492 93.8999 43.3492C93.4227 43.3492 93.006 43.4666 92.6499 43.7015C92.2977 43.9325 92.0249 44.2355 91.8318 44.6105C91.6424 44.9818 91.5477 45.3852 91.5477 45.8208V46.8151C91.5477 47.3984 91.6499 47.8946 91.8545 48.3037C92.0628 48.7128 92.3526 49.0253 92.7238 49.2412C93.095 49.4533 93.5287 49.5594 94.0249 49.5594C94.3469 49.5594 94.6405 49.514 94.9056 49.423C95.1708 49.3283 95.3999 49.1882 95.5931 49.0026C95.7863 48.817 95.934 48.5878 96.0363 48.3151L97.6443 48.6049C97.5155 49.0783 97.2844 49.4931 96.9511 49.8492C96.6215 50.2015 96.2068 50.4761 95.7068 50.673C95.2106 50.8662 94.6443 50.9628 94.0079 50.9628ZM101.336 45.6049V50.7867H99.6372V42.0594H101.268V43.4799H101.376C101.577 43.0177 101.891 42.6465 102.319 42.3662C102.751 42.0859 103.294 41.9458 103.95 41.9458C104.544 41.9458 105.065 42.0708 105.512 42.3208C105.959 42.567 106.306 42.9344 106.552 43.423C106.798 43.9117 106.921 44.5158 106.921 45.2355V50.7867H105.222V45.4401C105.222 44.8075 105.058 44.3132 104.728 43.9571C104.399 43.5973 103.946 43.4174 103.37 43.4174C102.976 43.4174 102.626 43.5026 102.319 43.673C102.016 43.8435 101.775 44.0935 101.597 44.423C101.423 44.7488 101.336 45.1427 101.336 45.6049ZM115.739 44.1901L114.2 44.4628C114.135 44.2658 114.033 44.0783 113.893 43.9003C113.756 43.7223 113.571 43.5765 113.336 43.4628C113.101 43.3492 112.808 43.2924 112.455 43.2924C111.974 43.2924 111.573 43.4003 111.251 43.6162C110.929 43.8283 110.768 44.103 110.768 44.4401C110.768 44.7318 110.876 44.9666 111.092 45.1446C111.308 45.3227 111.656 45.4685 112.137 45.5821L113.524 45.9003C114.327 46.0859 114.925 46.3719 115.319 46.7583C115.713 47.1446 115.91 47.6465 115.91 48.264C115.91 48.7867 115.758 49.2526 115.455 49.6617C115.156 50.067 114.738 50.3852 114.2 50.6162C113.666 50.8473 113.046 50.9628 112.342 50.9628C111.364 50.9628 110.567 50.7545 109.95 50.3378C109.332 49.9174 108.953 49.3208 108.813 48.548L110.455 48.298C110.558 48.7261 110.768 49.0499 111.086 49.2696C111.404 49.4855 111.819 49.5935 112.33 49.5935C112.887 49.5935 113.332 49.478 113.666 49.2469C113.999 49.0121 114.166 48.7261 114.166 48.389C114.166 48.1162 114.063 47.8871 113.859 47.7015C113.658 47.5158 113.349 47.3757 112.933 47.281L111.455 46.9571C110.641 46.7715 110.039 46.4761 109.649 46.0708C109.262 45.6655 109.069 45.1522 109.069 44.531C109.069 44.0158 109.213 43.5651 109.501 43.1787C109.789 42.7924 110.186 42.4912 110.694 42.2753C111.202 42.0556 111.783 41.9458 112.438 41.9458C113.381 41.9458 114.124 42.1503 114.666 42.5594C115.207 42.9647 115.565 43.5083 115.739 44.1901ZM121.852 42.0594V43.423H117.085V42.0594H121.852ZM118.363 39.9685H120.062V48.2242C120.062 48.5537 120.111 48.8018 120.21 48.9685C120.308 49.1314 120.435 49.2431 120.59 49.3037C120.749 49.3605 120.922 49.389 121.107 49.389C121.244 49.389 121.363 49.3795 121.465 49.3605C121.568 49.3416 121.647 49.3265 121.704 49.3151L122.011 50.7185C121.912 50.7564 121.772 50.7943 121.59 50.8321C121.408 50.8738 121.181 50.8965 120.908 50.9003C120.461 50.9079 120.045 50.8283 119.658 50.6617C119.272 50.495 118.96 50.2374 118.721 49.889C118.482 49.5405 118.363 49.103 118.363 48.5765V39.9685ZM127.399 50.9628C126.539 50.9628 125.798 50.7791 125.177 50.4117C124.56 50.0405 124.082 49.5196 123.745 48.8492C123.412 48.1749 123.245 47.3852 123.245 46.4799C123.245 45.5859 123.412 44.798 123.745 44.1162C124.082 43.4344 124.552 42.9022 125.154 42.5196C125.76 42.1371 126.469 41.9458 127.279 41.9458C127.772 41.9458 128.249 42.0272 128.711 42.1901C129.173 42.353 129.588 42.6087 129.955 42.9571C130.323 43.3056 130.613 43.7583 130.825 44.3151C131.037 44.8681 131.143 45.5405 131.143 46.3321V46.9344H124.205V45.6617H129.478C129.478 45.2147 129.387 44.8189 129.205 44.4742C129.024 44.1257 128.768 43.8511 128.438 43.6503C128.113 43.4496 127.73 43.3492 127.291 43.3492C126.813 43.3492 126.397 43.4666 126.041 43.7015C125.688 43.9325 125.416 44.2355 125.222 44.6105C125.033 44.9818 124.938 45.3852 124.938 45.8208V46.8151C124.938 47.3984 125.041 47.8946 125.245 48.3037C125.453 48.7128 125.743 49.0253 126.114 49.2412C126.486 49.4533 126.919 49.5594 127.416 49.5594C127.738 49.5594 128.031 49.514 128.296 49.423C128.561 49.3283 128.791 49.1882 128.984 49.0026C129.177 48.817 129.325 48.5878 129.427 48.3151L131.035 48.6049C130.906 49.0783 130.675 49.4931 130.342 49.8492C130.012 50.2015 129.597 50.4761 129.097 50.673C128.601 50.8662 128.035 50.9628 127.399 50.9628ZM141.416 42.0594V43.423H136.484V42.0594H141.416ZM137.836 50.7867V41.048C137.836 40.5026 137.955 40.0499 138.194 39.6901C138.433 39.3265 138.749 39.0556 139.143 38.8776C139.537 38.6958 139.965 38.6049 140.427 38.6049C140.768 38.6049 141.06 38.6333 141.302 38.6901C141.544 38.7431 141.724 38.7924 141.842 38.8378L141.444 40.2128C141.364 40.1901 141.262 40.1636 141.137 40.1333C141.012 40.0992 140.861 40.0821 140.683 40.0821C140.27 40.0821 139.974 40.1844 139.796 40.389C139.622 40.5935 139.535 40.889 139.535 41.2753V50.7867H137.836ZM148.697 47.1674V42.0594H150.401V50.7867H148.731V49.2753H148.64C148.439 49.7412 148.117 50.1295 147.674 50.4401C147.235 50.7469 146.687 50.9003 146.032 50.9003C145.471 50.9003 144.975 50.7772 144.543 50.531C144.115 50.281 143.778 49.9117 143.532 49.423C143.29 48.9344 143.168 48.3302 143.168 47.6105V42.0594H144.867V47.406C144.867 48.0007 145.032 48.4742 145.362 48.8265C145.691 49.1787 146.119 49.3549 146.646 49.3549C146.964 49.3549 147.28 49.2753 147.595 49.1162C147.913 48.9571 148.176 48.7166 148.384 48.3946C148.596 48.0727 148.701 47.6636 148.697 47.1674ZM145.129 40.6901C144.86 40.6901 144.625 40.5916 144.424 40.3946C144.223 40.1939 144.123 39.9628 144.123 39.7015C144.123 39.4174 144.223 39.1806 144.424 38.9912C144.625 38.8018 144.86 38.7071 145.129 38.7071C145.413 38.7071 145.649 38.8018 145.839 38.9912C146.032 39.1806 146.129 39.4174 146.129 39.7015C146.129 39.9628 146.032 40.1939 145.839 40.3946C145.649 40.5916 145.413 40.6901 145.129 40.6901ZM148.47 40.6901C148.201 40.6901 147.966 40.5916 147.765 40.3946C147.564 40.1939 147.464 39.9628 147.464 39.7015C147.464 39.4174 147.564 39.1806 147.765 38.9912C147.966 38.8018 148.201 38.7071 148.47 38.7071C148.754 38.7071 148.99 38.8018 149.18 38.9912C149.373 39.1806 149.47 39.4174 149.47 39.7015C149.47 39.9628 149.373 40.1939 149.18 40.3946C148.99 40.5916 148.754 40.6901 148.47 40.6901ZM152.684 50.7867V42.0594H154.326V43.4458H154.417C154.576 42.9761 154.856 42.6068 155.258 42.3378C155.663 42.0651 156.122 41.9287 156.633 41.9287C156.739 41.9287 156.864 41.9325 157.008 41.9401C157.156 41.9477 157.271 41.9571 157.354 41.9685V43.5935C157.286 43.5746 157.165 43.5537 156.991 43.531C156.817 43.5045 156.642 43.4912 156.468 43.4912C156.067 43.4912 155.709 43.5765 155.394 43.7469C155.084 43.9136 154.837 44.1465 154.656 44.4458C154.474 44.7412 154.383 45.0783 154.383 45.4571V50.7867H152.684ZM163.195 39.1503H165.326L169.031 48.1958H169.167L172.872 39.1503H175.002V50.7867H173.332V42.3662H173.224L169.792 50.7696H168.406L164.974 42.3605H164.866V50.7867H163.195V39.1503ZM181.18 50.9628C180.32 50.9628 179.579 50.7791 178.958 50.4117C178.341 50.0405 177.863 49.5196 177.526 48.8492C177.193 48.1749 177.026 47.3852 177.026 46.4799C177.026 45.5859 177.193 44.798 177.526 44.1162C177.863 43.4344 178.333 42.9022 178.935 42.5196C179.542 42.1371 180.25 41.9458 181.06 41.9458C181.553 41.9458 182.03 42.0272 182.492 42.1901C182.954 42.353 183.369 42.6087 183.737 42.9571C184.104 43.3056 184.394 43.7583 184.606 44.3151C184.818 44.8681 184.924 45.5405 184.924 46.3321V46.9344H177.987V45.6617H183.259C183.259 45.2147 183.168 44.8189 182.987 44.4742C182.805 44.1257 182.549 43.8511 182.22 43.6503C181.894 43.4496 181.511 43.3492 181.072 43.3492C180.595 43.3492 180.178 43.4666 179.822 43.7015C179.47 43.9325 179.197 44.2355 179.004 44.6105C178.814 44.9818 178.72 45.3852 178.72 45.8208V46.8151C178.72 47.3984 178.822 47.8946 179.026 48.3037C179.235 48.7128 179.524 49.0253 179.896 49.2412C180.267 49.4533 180.701 49.5594 181.197 49.5594C181.519 49.5594 181.812 49.514 182.078 49.423C182.343 49.3283 182.572 49.1882 182.765 49.0026C182.958 48.817 183.106 48.5878 183.208 48.3151L184.816 48.6049C184.687 49.0783 184.456 49.4931 184.123 49.8492C183.793 50.2015 183.379 50.4761 182.879 50.673C182.382 50.8662 181.816 50.9628 181.18 50.9628ZM188.508 45.6049V50.7867H186.809V42.0594H188.44V43.4799H188.548C188.748 43.0177 189.063 42.6465 189.491 42.3662C189.923 42.0859 190.466 41.9458 191.122 41.9458C191.716 41.9458 192.237 42.0708 192.684 42.3208C193.131 42.567 193.478 42.9344 193.724 43.423C193.97 43.9117 194.093 44.5158 194.093 45.2355V50.7867H192.394V45.4401C192.394 44.8075 192.229 44.3132 191.9 43.9571C191.57 43.5973 191.118 43.4174 190.542 43.4174C190.148 43.4174 189.798 43.5026 189.491 43.673C189.188 43.8435 188.947 44.0935 188.769 44.423C188.595 44.7488 188.508 45.1427 188.508 45.6049ZM202.911 44.1901L201.372 44.4628C201.307 44.2658 201.205 44.0783 201.065 43.9003C200.928 43.7223 200.743 43.5765 200.508 43.4628C200.273 43.3492 199.979 43.2924 199.627 43.2924C199.146 43.2924 198.745 43.4003 198.423 43.6162C198.101 43.8283 197.94 44.103 197.94 44.4401C197.94 44.7318 198.048 44.9666 198.264 45.1446C198.479 45.3227 198.828 45.4685 199.309 45.5821L200.695 45.9003C201.498 46.0859 202.097 46.3719 202.491 46.7583C202.885 47.1446 203.082 47.6465 203.082 48.264C203.082 48.7867 202.93 49.2526 202.627 49.6617C202.328 50.067 201.909 50.3852 201.372 50.6162C200.837 50.8473 200.218 50.9628 199.514 50.9628C198.536 50.9628 197.739 50.7545 197.122 50.3378C196.504 49.9174 196.125 49.3208 195.985 48.548L197.627 48.298C197.729 48.7261 197.94 49.0499 198.258 49.2696C198.576 49.4855 198.991 49.5935 199.502 49.5935C200.059 49.5935 200.504 49.478 200.837 49.2469C201.171 49.0121 201.337 48.7261 201.337 48.389C201.337 48.1162 201.235 47.8871 201.031 47.7015C200.83 47.5158 200.521 47.3757 200.104 47.281L198.627 46.9571C197.813 46.7715 197.211 46.4761 196.82 46.0708C196.434 45.6655 196.241 45.1522 196.241 44.531C196.241 44.0158 196.385 43.5651 196.673 43.1787C196.961 42.7924 197.358 42.4912 197.866 42.2753C198.373 42.0556 198.955 41.9458 199.61 41.9458C200.553 41.9458 201.296 42.1503 201.837 42.5594C202.379 42.9647 202.737 43.5083 202.911 44.1901ZM208.626 50.9628C207.781 50.9628 207.054 50.7715 206.444 50.389C205.838 50.0026 205.372 49.4704 205.046 48.7924C204.72 48.1143 204.558 47.3378 204.558 46.4628C204.558 45.5765 204.724 44.7943 205.058 44.1162C205.391 43.4344 205.861 42.9022 206.467 42.5196C207.073 42.1371 207.787 41.9458 208.609 41.9458C209.272 41.9458 209.863 42.0689 210.381 42.3151C210.9 42.5575 211.319 42.8984 211.637 43.3378C211.959 43.7772 212.15 44.2905 212.211 44.8776H210.558C210.467 44.4685 210.258 44.1162 209.933 43.8208C209.611 43.5253 209.179 43.3776 208.637 43.3776C208.164 43.3776 207.749 43.5026 207.393 43.7526C207.041 43.9988 206.766 44.3511 206.569 44.8094C206.372 45.264 206.274 45.8018 206.274 46.423C206.274 47.0594 206.37 47.6087 206.563 48.0708C206.756 48.5329 207.029 48.8908 207.381 49.1446C207.738 49.3984 208.156 49.5253 208.637 49.5253C208.959 49.5253 209.251 49.4666 209.512 49.3492C209.777 49.228 209.999 49.0556 210.177 48.8321C210.359 48.6087 210.486 48.3397 210.558 48.0253H212.211C212.15 48.5897 211.967 49.0935 211.66 49.5367C211.353 49.9799 210.942 50.3283 210.427 50.5821C209.916 50.8359 209.315 50.9628 208.626 50.9628ZM215.727 45.6049V50.7867H214.028V39.1503H215.704V43.4799H215.812C216.016 43.0102 216.329 42.6371 216.749 42.3605C217.17 42.084 217.719 41.9458 218.397 41.9458C218.996 41.9458 219.518 42.0689 219.965 42.3151C220.416 42.5613 220.765 42.9287 221.011 43.4174C221.261 43.9022 221.386 44.5083 221.386 45.2355V50.7867H219.687V45.4401C219.687 44.7999 219.522 44.3037 219.193 43.9515C218.863 43.5954 218.405 43.4174 217.818 43.4174C217.416 43.4174 217.056 43.5026 216.738 43.673C216.424 43.8435 216.176 44.0935 215.994 44.423C215.816 44.7488 215.727 45.1427 215.727 45.6049ZM227.414 50.9628C226.554 50.9628 225.814 50.7791 225.193 50.4117C224.575 50.0405 224.098 49.5196 223.761 48.8492C223.427 48.1749 223.261 47.3852 223.261 46.4799C223.261 45.5859 223.427 44.798 223.761 44.1162C224.098 43.4344 224.568 42.9022 225.17 42.5196C225.776 42.1371 226.484 41.9458 227.295 41.9458C227.787 41.9458 228.265 42.0272 228.727 42.1901C229.189 42.353 229.604 42.6087 229.971 42.9571C230.338 43.3056 230.628 43.7583 230.84 44.3151C231.052 44.8681 231.158 45.5405 231.158 46.3321V46.9344H224.221V45.6617H229.494C229.494 45.2147 229.403 44.8189 229.221 44.4742C229.039 44.1257 228.783 43.8511 228.454 43.6503C228.128 43.4496 227.746 43.3492 227.306 43.3492C226.829 43.3492 226.412 43.4666 226.056 43.7015C225.704 43.9325 225.431 44.2355 225.238 44.6105C225.049 44.9818 224.954 45.3852 224.954 45.8208V46.8151C224.954 47.3984 225.056 47.8946 225.261 48.3037C225.469 48.7128 225.759 49.0253 226.13 49.2412C226.501 49.4533 226.935 49.5594 227.431 49.5594C227.753 49.5594 228.047 49.514 228.312 49.423C228.577 49.3283 228.806 49.1882 228.999 49.0026C229.193 48.817 229.34 48.5878 229.443 48.3151L231.051 48.6049C230.922 49.0783 230.691 49.4931 230.357 49.8492C230.028 50.2015 229.613 50.4761 229.113 50.673C228.617 50.8662 228.051 50.9628 227.414 50.9628ZM234.742 45.6049V50.7867H233.043V42.0594H234.674V43.4799H234.782C234.983 43.0177 235.297 42.6465 235.725 42.3662C236.157 42.0859 236.701 41.9458 237.356 41.9458C237.951 41.9458 238.471 42.0708 238.918 42.3208C239.365 42.567 239.712 42.9344 239.958 43.423C240.204 43.9117 240.328 44.5158 240.328 45.2355V50.7867H238.629V45.4401C238.629 44.8075 238.464 44.3132 238.134 43.9571C237.805 43.5973 237.352 43.4174 236.776 43.4174C236.382 43.4174 236.032 43.5026 235.725 43.673C235.422 43.8435 235.182 44.0935 235.004 44.423C234.829 44.7488 234.742 45.1427 234.742 45.6049Z" fill="#5C5C5C"/>
<path d="M28.252 33.7482L28.252 57C28.252 59.7614 26.0134 62 23.252 62L5.00012 62C2.2387 62 0.000119026 59.7614 0.000119147 57L0.000119944 38.7482C0.000120065 35.9867 2.2387 33.7482 5.00012 33.7482L28.252 33.7482Z" fill="#3CC74A"/>
<mask id="mask0_50_480" style="mask-type:alpha" maskUnits="userSpaceOnUse" x="10" y="3" width="49" height="49">
<path d="M33.543 18.1361L33.543 51.5825L58.1544 51.5825L58.1545 18.1361L33.543 18.1361Z" fill="#ED681E"/>
<path d="M10.6611 28.449L10.6611 3.6216L58.3454 3.62161L58.3454 28.449L10.6611 28.449Z" fill="#ED681E"/>
</mask>
<g mask="url(#mask0_50_480)">
<path d="M53.1753 3.62158C55.9367 3.62158 58.1753 5.86016 58.1753 8.62158L58.1753 46.5641C58.1753 49.3255 55.9367 51.5641 53.1753 51.5641L15.2328 51.5641C12.4714 51.5641 10.2328 49.3255 10.2328 46.5641L10.2328 8.62158C10.2328 5.86015 12.4714 3.62158 15.2328 3.62158L53.1753 3.62158Z" fill="#3CC74A"/>
</g>
</svg>
