<svg width="232" height="50" viewBox="0 0 232 50" fill="none" xmlns="http://www.w3.org/2000/svg">
<path d="M55.4826 5.648C55.5706 5.648 55.8146 5.648 56.2146 5.648C56.6226 5.648 57.0986 5.648 57.6426 5.648C58.1946 5.648 58.7426 5.652 59.2866 5.66C59.8386 5.66 60.2986 5.664 60.6666 5.672C62.7706 5.72 64.4866 6.096 65.8146 6.8C67.1426 7.504 68.1146 8.488 68.7306 9.752C69.3546 11.016 69.6666 12.512 69.6666 14.24C69.6666 16.04 69.3386 17.596 68.6826 18.908C68.0266 20.212 67.0226 21.22 65.6706 21.932C64.3266 22.644 62.6186 23 60.5466 23H55.4826V5.648ZM59.0106 8.48V20.168H60.6186C61.6106 20.168 62.5106 19.976 63.3186 19.592C64.1346 19.208 64.7866 18.58 65.2746 17.708C65.7626 16.836 66.0066 15.672 66.0066 14.216C66.0066 12.864 65.7906 11.768 65.3586 10.928C64.9266 10.08 64.3106 9.46 63.5106 9.068C62.7106 8.676 61.7626 8.48 60.6666 8.48H59.0106ZM72.756 5.648H84.564L84.552 8.576H76.284V12.932H83.448V15.8H76.284V23H72.756V5.648ZM87.4748 23V5.648H92.5628L96.5348 18.02L100.543 5.648H105.619V23H102.079V9.728L97.9028 23H95.1548L91.0028 9.788V23H87.4748ZM128.056 23H124.42L121.6 16.316H118.084V23H114.592V5.648H121.912C123.296 5.648 124.428 5.868 125.308 6.308C126.188 6.748 126.836 7.36 127.252 8.144C127.668 8.92 127.876 9.816 127.876 10.832C127.876 11.744 127.732 12.516 127.444 13.148C127.164 13.772 126.792 14.292 126.328 14.708C125.872 15.124 125.372 15.464 124.828 15.728L128.056 23ZM121.288 13.616C122.224 13.616 122.964 13.364 123.508 12.86C124.06 12.356 124.336 11.708 124.336 10.916C124.336 10.116 124.072 9.484 123.544 9.02C123.016 8.556 122.348 8.324 121.54 8.324H118.084V13.616H121.288ZM133.294 17.6C133.286 18.232 133.386 18.784 133.594 19.256C133.802 19.72 134.102 20.08 134.494 20.336C134.894 20.584 135.374 20.708 135.934 20.708C136.534 20.708 137.058 20.58 137.506 20.324C137.962 20.068 138.278 19.648 138.454 19.064H141.61C141.474 19.944 141.122 20.696 140.554 21.32C139.994 21.944 139.314 22.42 138.514 22.748C137.714 23.076 136.882 23.24 136.018 23.24C134.794 23.24 133.714 22.984 132.778 22.472C131.85 21.952 131.126 21.22 130.606 20.276C130.086 19.332 129.826 18.22 129.826 16.94C129.826 15.7 130.062 14.584 130.534 13.592C131.006 12.592 131.69 11.804 132.586 11.228C133.49 10.644 134.574 10.352 135.838 10.352C137.102 10.352 138.162 10.62 139.018 11.156C139.882 11.684 140.53 12.424 140.962 13.376C141.402 14.32 141.622 15.412 141.622 16.652V17.6H133.294ZM133.282 15.512H138.346C138.346 15.016 138.254 14.56 138.07 14.144C137.886 13.728 137.606 13.4 137.23 13.16C136.862 12.92 136.398 12.8 135.838 12.8C135.294 12.8 134.83 12.932 134.446 13.196C134.07 13.452 133.782 13.788 133.582 14.204C133.382 14.62 133.282 15.056 133.282 15.512ZM149.638 27.104C147.43 27.104 145.75 26.824 144.598 26.264C143.454 25.704 142.882 24.968 142.882 24.056C142.882 23.632 142.994 23.276 143.218 22.988C143.442 22.7 143.702 22.472 143.998 22.304C144.302 22.128 144.578 21.996 144.826 21.908C145.082 21.812 145.238 21.748 145.294 21.716C145.166 21.644 144.982 21.54 144.742 21.404C144.502 21.26 144.278 21.068 144.07 20.828C143.87 20.58 143.77 20.26 143.77 19.868C143.77 19.428 143.978 19.02 144.394 18.644C144.818 18.268 145.458 18.008 146.314 17.864C145.498 17.48 144.878 16.96 144.454 16.304C144.03 15.648 143.818 14.976 143.818 14.288C143.818 13.472 144.074 12.772 144.586 12.188C145.098 11.604 145.794 11.16 146.674 10.856C147.562 10.552 148.566 10.4 149.686 10.4C150.542 10.4 151.242 10.492 151.786 10.676C152.33 10.852 152.834 11.084 153.298 11.372C153.482 11.3 153.726 11.208 154.03 11.096C154.334 10.976 154.662 10.848 155.014 10.712C155.366 10.568 155.71 10.428 156.046 10.292C156.382 10.148 156.682 10.02 156.946 9.908L156.934 12.62L154.786 12.968C154.874 13.184 154.942 13.416 154.99 13.664C155.038 13.912 155.062 14.116 155.062 14.276C155.062 14.996 154.85 15.668 154.426 16.292C154.01 16.916 153.382 17.42 152.542 17.804C151.71 18.188 150.678 18.38 149.446 18.38C149.294 18.38 149.09 18.376 148.834 18.368C148.586 18.36 148.382 18.348 148.222 18.332C147.75 18.356 147.426 18.416 147.25 18.512C147.074 18.608 146.986 18.72 146.986 18.848C146.986 19.04 147.166 19.168 147.526 19.232C147.886 19.288 148.43 19.34 149.158 19.388C149.414 19.404 149.77 19.424 150.226 19.448C150.682 19.472 151.186 19.504 151.738 19.544C153.258 19.648 154.39 20.024 155.134 20.672C155.886 21.312 156.262 22.12 156.262 23.096C156.262 24.256 155.71 25.212 154.606 25.964C153.51 26.724 151.854 27.104 149.638 27.104ZM150.202 25.148C151.178 25.148 151.874 25.028 152.29 24.788C152.706 24.548 152.914 24.204 152.914 23.756C152.914 23.38 152.754 23.076 152.434 22.844C152.114 22.604 151.646 22.464 151.03 22.424L148.186 22.232C147.818 22.216 147.49 22.272 147.202 22.4C146.922 22.528 146.702 22.704 146.542 22.928C146.39 23.152 146.314 23.392 146.314 23.648C146.314 24.168 146.63 24.548 147.262 24.788C147.894 25.028 148.874 25.148 150.202 25.148ZM149.542 16.424C150.206 16.424 150.738 16.244 151.138 15.884C151.546 15.516 151.75 15.02 151.75 14.396C151.75 13.748 151.546 13.228 151.138 12.836C150.738 12.444 150.206 12.248 149.542 12.248C148.886 12.248 148.35 12.444 147.934 12.836C147.526 13.228 147.322 13.748 147.322 14.396C147.322 15.012 147.518 15.504 147.91 15.872C148.31 16.24 148.854 16.424 149.542 16.424ZM162.488 10.592V23H159.14V10.592H162.488ZM162.524 5.66V8.816H159.116V5.66H162.524ZM170.992 23.24C169.776 23.24 168.716 22.98 167.812 22.46C166.916 21.94 166.22 21.204 165.724 20.252C165.236 19.3 164.992 18.172 164.992 16.868C164.992 15.564 165.236 14.424 165.724 13.448C166.22 12.472 166.916 11.712 167.812 11.168C168.716 10.624 169.78 10.352 171.004 10.352C172.228 10.352 173.288 10.62 174.184 11.156C175.08 11.684 175.772 12.436 176.26 13.412C176.748 14.388 176.992 15.54 176.992 16.868C176.992 18.116 176.752 19.22 176.272 20.18C175.8 21.132 175.116 21.88 174.22 22.424C173.332 22.968 172.256 23.24 170.992 23.24ZM171.004 20.636C171.62 20.636 172.116 20.456 172.492 20.096C172.868 19.736 173.14 19.264 173.308 18.68C173.484 18.088 173.572 17.444 173.572 16.748C173.572 16.092 173.492 15.472 173.332 14.888C173.18 14.304 172.916 13.832 172.54 13.472C172.164 13.112 171.652 12.932 171.004 12.932C170.388 12.932 169.888 13.104 169.504 13.448C169.128 13.784 168.852 14.244 168.676 14.828C168.5 15.404 168.412 16.044 168.412 16.748C168.412 17.396 168.492 18.02 168.652 18.62C168.812 19.212 169.08 19.696 169.456 20.072C169.832 20.448 170.348 20.636 171.004 20.636ZM179.328 23V10.592H182.772V12.344C182.964 12.04 183.212 11.748 183.516 11.468C183.828 11.18 184.22 10.944 184.692 10.76C185.164 10.576 185.724 10.484 186.372 10.484C187.132 10.484 187.84 10.632 188.496 10.928C189.16 11.224 189.696 11.692 190.104 12.332C190.512 12.964 190.716 13.792 190.716 14.816V23H187.212V15.248C187.212 14.576 187.012 14.072 186.612 13.736C186.212 13.4 185.724 13.232 185.148 13.232C184.764 13.232 184.392 13.3 184.032 13.436C183.68 13.572 183.392 13.776 183.168 14.048C182.944 14.32 182.832 14.656 182.832 15.056V23H179.328ZM197.06 23.24C196.268 23.24 195.556 23.092 194.924 22.796C194.292 22.5 193.792 22.072 193.424 21.512C193.056 20.944 192.872 20.256 192.872 19.448C192.872 18.088 193.38 17.056 194.396 16.352C195.412 15.64 197.016 15.272 199.208 15.248L200.756 15.224V14.48C200.756 13.912 200.588 13.476 200.252 13.172C199.924 12.86 199.412 12.708 198.716 12.716C198.204 12.724 197.716 12.844 197.252 13.076C196.796 13.308 196.484 13.712 196.316 14.288H193.4C193.448 13.392 193.708 12.656 194.18 12.08C194.652 11.496 195.292 11.064 196.1 10.784C196.916 10.496 197.84 10.352 198.872 10.352C200.144 10.352 201.164 10.512 201.932 10.832C202.7 11.144 203.256 11.596 203.6 12.188C203.944 12.772 204.116 13.468 204.116 14.276V23H201.188L200.9 20.864C200.476 21.76 199.944 22.38 199.304 22.724C198.672 23.068 197.924 23.24 197.06 23.24ZM198.236 20.936C198.556 20.936 198.864 20.88 199.16 20.768C199.464 20.648 199.732 20.492 199.964 20.3C200.204 20.1 200.396 19.876 200.54 19.628C200.684 19.38 200.756 19.124 200.756 18.86V17.024L199.496 17.048C198.912 17.056 198.368 17.128 197.864 17.264C197.36 17.392 196.952 17.604 196.64 17.9C196.336 18.196 196.184 18.596 196.184 19.1C196.184 19.676 196.384 20.128 196.784 20.456C197.184 20.776 197.668 20.936 198.236 20.936ZM211.178 23.216C210.266 23.216 209.542 23.108 209.006 22.892C208.47 22.676 208.074 22.392 207.818 22.04C207.562 21.68 207.398 21.284 207.326 20.852C207.254 20.412 207.218 19.968 207.218 19.52V5.168H210.65V19.088C210.65 19.544 210.746 19.916 210.938 20.204C211.138 20.484 211.51 20.656 212.054 20.72L212.642 20.756V22.916C212.402 22.996 212.158 23.064 211.91 23.12C211.662 23.184 211.418 23.216 211.178 23.216Z" fill="white"/>
<path d="M59.5531 39.8846H56.7278V31.1574H59.6426C60.4977 31.1574 61.2321 31.3321 61.8457 31.6815C62.4594 32.0281 62.9296 32.5267 63.2563 33.1773C63.5858 33.825 63.7506 34.602 63.7506 35.5082C63.7506 36.4173 63.5844 37.1986 63.252 37.852C62.9225 38.5054 62.4452 39.0082 61.8202 39.3605C61.1952 39.7099 60.4395 39.8846 59.5531 39.8846ZM58.0446 38.7341H59.4807C60.1455 38.7341 60.698 38.6091 61.1384 38.3591C61.5787 38.1062 61.9082 37.7412 62.127 37.2639C62.3457 36.7838 62.4551 36.1986 62.4551 35.5082C62.4551 34.8236 62.3457 34.2426 62.127 33.7653C61.9111 33.2881 61.5886 32.9258 61.1597 32.6787C60.7307 32.4315 60.198 32.3079 59.5617 32.3079H58.0446V38.7341ZM65.2857 39.8846V33.3392H66.5599V39.8846H65.2857ZM65.9292 32.3292C65.7076 32.3292 65.5173 32.2554 65.3582 32.1077C65.2019 31.9571 65.1238 31.7781 65.1238 31.5707C65.1238 31.3605 65.2019 31.1815 65.3582 31.0338C65.5173 30.8832 65.7076 30.8079 65.9292 30.8079C66.1508 30.8079 66.3397 30.8832 66.496 31.0338C66.6551 31.1815 66.7346 31.3605 66.7346 31.5707C66.7346 31.7781 66.6551 31.9571 66.496 32.1077C66.3397 32.2554 66.1508 32.3292 65.9292 32.3292ZM71.095 40.0167C70.4502 40.0167 69.8948 39.879 69.4288 39.6034C68.9658 39.325 68.6078 38.9344 68.355 38.4315C68.105 37.9258 67.98 37.3335 67.98 36.6545C67.98 35.9841 68.105 35.3932 68.355 34.8818C68.6078 34.3704 68.9601 33.9713 69.4118 33.6844C69.8663 33.3974 70.3976 33.254 71.0055 33.254C71.3749 33.254 71.7328 33.315 72.0794 33.4372C72.426 33.5594 72.7371 33.7511 73.0127 34.0125C73.2882 34.2738 73.5055 34.6133 73.6646 35.031C73.8237 35.4457 73.9033 35.95 73.9033 36.5437V36.9954H68.7002V36.0409H72.6547C72.6547 35.7057 72.5865 35.4088 72.4502 35.1503C72.3138 34.8889 72.122 34.6829 71.8749 34.5324C71.6305 34.3818 71.3436 34.3065 71.0141 34.3065C70.6561 34.3065 70.3436 34.3946 70.0766 34.5707C69.8124 34.744 69.6078 34.9713 69.4629 35.2525C69.3209 35.531 69.2499 35.8335 69.2499 36.1602V36.906C69.2499 37.3435 69.3266 37.7156 69.48 38.0224C69.6362 38.3292 69.8536 38.5636 70.132 38.7256C70.4104 38.8846 70.7357 38.9642 71.1078 38.9642C71.3493 38.9642 71.5695 38.9301 71.7683 38.8619C71.9672 38.7909 72.1391 38.6858 72.284 38.5466C72.4288 38.4074 72.5396 38.2355 72.6163 38.031L73.8223 38.2483C73.7257 38.6034 73.5524 38.9145 73.3024 39.1815C73.0553 39.4457 72.7442 39.6517 72.3692 39.7994C71.997 39.9443 71.5723 40.0167 71.095 40.0167ZM76.5911 35.9983V39.8846H75.317V33.3392H76.54V34.4045H76.621C76.7715 34.0579 77.0073 33.7795 77.3283 33.5693C77.6522 33.3591 78.0599 33.254 78.5514 33.254C78.9974 33.254 79.388 33.3477 79.7232 33.5352C80.0585 33.7199 80.3184 33.9954 80.5031 34.3619C80.6877 34.7284 80.7801 35.1815 80.7801 35.7213V39.8846H79.5059V35.8747C79.5059 35.4003 79.3823 35.0295 79.1352 34.7625C78.888 34.4926 78.5485 34.3577 78.1167 34.3577C77.8212 34.3577 77.5585 34.4216 77.3283 34.5494C77.1011 34.6773 76.9207 34.8648 76.7872 35.1119C76.6565 35.3562 76.5911 35.6517 76.5911 35.9983ZM87.3937 34.9372L86.2389 35.1417C86.1906 34.994 86.1139 34.8534 86.0087 34.7199C85.9065 34.5863 85.7673 34.477 85.5911 34.3917C85.415 34.3065 85.1948 34.2639 84.9306 34.2639C84.5698 34.2639 84.2687 34.3449 84.0272 34.5068C83.7857 34.6659 83.665 34.8719 83.665 35.1247C83.665 35.3435 83.746 35.5196 83.9079 35.6531C84.0698 35.7866 84.3312 35.896 84.692 35.9812L85.7318 36.2199C86.334 36.3591 86.7829 36.5736 87.0783 36.8633C87.3738 37.1531 87.5215 37.5295 87.5215 37.9926C87.5215 38.3846 87.4079 38.7341 87.1806 39.0409C86.9562 39.3449 86.6423 39.5835 86.2389 39.7568C85.8383 39.9301 85.3738 40.0167 84.8454 40.0167C84.1124 40.0167 83.5144 39.8605 83.0514 39.548C82.5883 39.2327 82.3042 38.7852 82.1991 38.2057L83.4306 38.0182C83.5073 38.3392 83.665 38.5821 83.9036 38.7469C84.1423 38.9088 84.4533 38.9898 84.8369 38.9898C85.2545 38.9898 85.5883 38.9031 85.8383 38.7298C86.0883 38.5537 86.2133 38.3392 86.2133 38.0863C86.2133 37.8818 86.1366 37.7099 85.9832 37.5707C85.8326 37.4315 85.6011 37.3264 85.2886 37.2554L84.1806 37.0125C83.5698 36.8733 83.1181 36.6517 82.8255 36.3477C82.5357 36.0437 82.3908 35.6588 82.3908 35.1929C82.3908 34.8065 82.4988 34.4685 82.7147 34.1787C82.9306 33.8889 83.2289 33.6631 83.6096 33.5011C83.9903 33.3363 84.4264 33.254 84.9178 33.254C85.6252 33.254 86.182 33.4074 86.5883 33.7142C86.9945 34.0182 87.263 34.4258 87.3937 34.9372ZM91.9779 33.3392V34.3619H88.4026V33.3392H91.9779ZM89.3614 31.771H90.6355V37.9628C90.6355 38.2099 90.6725 38.396 90.7463 38.521C90.8202 38.6432 90.9153 38.727 91.0318 38.7724C91.1511 38.815 91.2804 38.8363 91.4196 38.8363C91.5219 38.8363 91.6114 38.8292 91.6881 38.815C91.7648 38.8008 91.8244 38.7895 91.8671 38.781L92.0972 39.8335C92.0233 39.8619 91.9182 39.8903 91.7818 39.9187C91.6455 39.95 91.475 39.967 91.2705 39.9699C90.9352 39.9756 90.6227 39.9159 90.333 39.7909C90.0432 39.6659 89.8088 39.4727 89.6298 39.2113C89.4509 38.95 89.3614 38.6219 89.3614 38.227V31.771ZM96.138 40.0167C95.4931 40.0167 94.9377 39.879 94.4718 39.6034C94.0087 39.325 93.6508 38.9344 93.3979 38.4315C93.1479 37.9258 93.0229 37.3335 93.0229 36.6545C93.0229 35.9841 93.1479 35.3932 93.3979 34.8818C93.6508 34.3704 94.0031 33.9713 94.4548 33.6844C94.9093 33.3974 95.4406 33.254 96.0485 33.254C96.4178 33.254 96.7758 33.315 97.1224 33.4372C97.469 33.5594 97.7801 33.7511 98.0556 34.0125C98.3312 34.2738 98.5485 34.6133 98.7076 35.031C98.8667 35.4457 98.9462 35.95 98.9462 36.5437V36.9954H93.7431V36.0409H97.6977C97.6977 35.7057 97.6295 35.4088 97.4931 35.1503C97.3568 34.8889 97.165 34.6829 96.9178 34.5324C96.6735 34.3818 96.3866 34.3065 96.057 34.3065C95.6991 34.3065 95.3866 34.3946 95.1195 34.5707C94.8553 34.744 94.6508 34.9713 94.5059 35.2525C94.3639 35.531 94.2928 35.8335 94.2928 36.1602V36.906C94.2928 37.3435 94.3695 37.7156 94.5229 38.0224C94.6792 38.3292 94.8965 38.5636 95.1749 38.7256C95.4533 38.8846 95.7786 38.9642 96.1508 38.9642C96.3923 38.9642 96.6124 38.9301 96.8113 38.8619C97.0102 38.7909 97.182 38.6858 97.3269 38.5466C97.4718 38.4074 97.5826 38.2355 97.6593 38.031L98.8653 38.2483C98.7687 38.6034 98.5954 38.9145 98.3454 39.1815C98.0982 39.4457 97.7872 39.6517 97.4122 39.7994C97.04 39.9443 96.6153 40.0167 96.138 40.0167ZM106.651 33.3392V34.3619H102.952V33.3392H106.651ZM103.966 39.8846V32.5807C103.966 32.1716 104.056 31.8321 104.235 31.5622C104.414 31.2895 104.651 31.0863 104.946 30.9528C105.242 30.8165 105.563 30.7483 105.909 30.7483C106.165 30.7483 106.384 30.7696 106.566 30.8122C106.747 30.852 106.882 30.8889 106.97 30.923L106.672 31.9542C106.612 31.9372 106.536 31.9173 106.442 31.8946C106.348 31.869 106.235 31.8562 106.101 31.8562C105.791 31.8562 105.57 31.9329 105.436 32.0863C105.306 32.2398 105.24 32.4613 105.24 32.7511V39.8846H103.966ZM112.112 37.1702V33.3392H113.39V39.8846H112.137V38.7511H112.069C111.919 39.1006 111.677 39.3917 111.345 39.6247C111.015 39.8548 110.605 39.9699 110.113 39.9699C109.693 39.9699 109.321 39.8775 108.997 39.6929C108.676 39.5054 108.423 39.2284 108.238 38.8619C108.056 38.4954 107.965 38.0423 107.965 37.5025V33.3392H109.24V37.3491C109.24 37.7952 109.363 38.1503 109.61 38.4145C109.857 38.6787 110.178 38.8108 110.573 38.8108C110.812 38.8108 111.049 38.7511 111.285 38.6318C111.524 38.5125 111.721 38.3321 111.877 38.0906C112.036 37.8491 112.115 37.5423 112.112 37.1702ZM109.436 32.3122C109.234 32.3122 109.058 32.2383 108.907 32.0906C108.757 31.94 108.681 31.7667 108.681 31.5707C108.681 31.3577 108.757 31.1801 108.907 31.0381C109.058 30.896 109.234 30.825 109.436 30.825C109.649 30.825 109.826 30.896 109.968 31.0381C110.113 31.1801 110.186 31.3577 110.186 31.5707C110.186 31.7667 110.113 31.94 109.968 32.0906C109.826 32.2383 109.649 32.3122 109.436 32.3122ZM111.941 32.3122C111.74 32.3122 111.563 32.2383 111.413 32.0906C111.262 31.94 111.187 31.7667 111.187 31.5707C111.187 31.3577 111.262 31.1801 111.413 31.0381C111.563 30.896 111.74 30.825 111.941 30.825C112.154 30.825 112.332 30.896 112.474 31.0381C112.619 31.1801 112.691 31.3577 112.691 31.5707C112.691 31.7667 112.619 31.94 112.474 32.0906C112.332 32.2383 112.154 32.3122 111.941 32.3122ZM115.102 39.8846V33.3392H116.334V34.379H116.402C116.521 34.0267 116.731 33.7497 117.033 33.548C117.337 33.3435 117.68 33.2412 118.064 33.2412C118.143 33.2412 118.237 33.244 118.345 33.2497C118.456 33.2554 118.542 33.2625 118.605 33.271V34.4898C118.554 34.4756 118.463 34.4599 118.332 34.4429C118.202 34.423 118.071 34.4131 117.94 34.4131C117.639 34.4131 117.371 34.477 117.135 34.6048C116.902 34.7298 116.717 34.9045 116.581 35.129C116.444 35.3506 116.376 35.6034 116.376 35.8875V39.8846H115.102ZM122.986 31.1574H124.584L127.362 37.9415H127.464L130.243 31.1574H131.841V39.8846H130.588V33.5693H130.507L127.933 39.8719H126.893L124.319 33.565H124.239V39.8846H122.986V31.1574ZM136.474 40.0167C135.829 40.0167 135.274 39.879 134.808 39.6034C134.345 39.325 133.987 38.9344 133.734 38.4315C133.484 37.9258 133.359 37.3335 133.359 36.6545C133.359 35.9841 133.484 35.3932 133.734 34.8818C133.987 34.3704 134.339 33.9713 134.791 33.6844C135.245 33.3974 135.777 33.254 136.384 33.254C136.754 33.254 137.112 33.315 137.458 33.4372C137.805 33.5594 138.116 33.7511 138.392 34.0125C138.667 34.2738 138.884 34.6133 139.044 35.031C139.203 35.4457 139.282 35.95 139.282 36.5437V36.9954H134.079V36.0409H138.034C138.034 35.7057 137.965 35.4088 137.829 35.1503C137.693 34.8889 137.501 34.6829 137.254 34.5324C137.009 34.3818 136.723 34.3065 136.393 34.3065C136.035 34.3065 135.723 34.3946 135.455 34.5707C135.191 34.744 134.987 34.9713 134.842 35.2525C134.7 35.531 134.629 35.8335 134.629 36.1602V36.906C134.629 37.3435 134.705 37.7156 134.859 38.0224C135.015 38.3292 135.232 38.5636 135.511 38.7256C135.789 38.8846 136.115 38.9642 136.487 38.9642C136.728 38.9642 136.948 38.9301 137.147 38.8619C137.346 38.7909 137.518 38.6858 137.663 38.5466C137.808 38.4074 137.919 38.2355 137.995 38.031L139.201 38.2483C139.105 38.6034 138.931 38.9145 138.681 39.1815C138.434 39.4457 138.123 39.6517 137.748 39.7994C137.376 39.9443 136.951 40.0167 136.474 40.0167ZM141.97 35.9983V39.8846H140.696V33.3392H141.919V34.4045H142C142.15 34.0579 142.386 33.7795 142.707 33.5693C143.031 33.3591 143.439 33.254 143.93 33.254C144.376 33.254 144.767 33.3477 145.102 33.5352C145.437 33.7199 145.697 33.9954 145.882 34.3619C146.067 34.7284 146.159 35.1815 146.159 35.7213V39.8846H144.885V35.8747C144.885 35.4003 144.761 35.0295 144.514 34.7625C144.267 34.4926 143.927 34.3577 143.496 34.3577C143.2 34.3577 142.937 34.4216 142.707 34.5494C142.48 34.6773 142.3 34.8648 142.166 35.1119C142.035 35.3562 141.97 35.6517 141.97 35.9983ZM152.773 34.9372L151.618 35.1417C151.569 34.994 151.493 34.8534 151.388 34.7199C151.285 34.5863 151.146 34.477 150.97 34.3917C150.794 34.3065 150.574 34.2639 150.31 34.2639C149.949 34.2639 149.648 34.3449 149.406 34.5068C149.165 34.6659 149.044 34.8719 149.044 35.1247C149.044 35.3435 149.125 35.5196 149.287 35.6531C149.449 35.7866 149.71 35.896 150.071 35.9812L151.111 36.2199C151.713 36.3591 152.162 36.5736 152.457 36.8633C152.753 37.1531 152.9 37.5295 152.9 37.9926C152.9 38.3846 152.787 38.7341 152.56 39.0409C152.335 39.3449 152.021 39.5835 151.618 39.7568C151.217 39.9301 150.753 40.0167 150.224 40.0167C149.491 40.0167 148.893 39.8605 148.43 39.548C147.967 39.2327 147.683 38.7852 147.578 38.2057L148.81 38.0182C148.886 38.3392 149.044 38.5821 149.283 38.7469C149.521 38.9088 149.832 38.9898 150.216 38.9898C150.633 38.9898 150.967 38.9031 151.217 38.7298C151.467 38.5537 151.592 38.3392 151.592 38.0863C151.592 37.8818 151.515 37.7099 151.362 37.5707C151.212 37.4315 150.98 37.3264 150.667 37.2554L149.56 37.0125C148.949 36.8733 148.497 36.6517 148.204 36.3477C147.915 36.0437 147.77 35.6588 147.77 35.1929C147.77 34.8065 147.878 34.4685 148.094 34.1787C148.31 33.8889 148.608 33.6631 148.989 33.5011C149.369 33.3363 149.805 33.254 150.297 33.254C151.004 33.254 151.561 33.4074 151.967 33.7142C152.373 34.0182 152.642 34.4258 152.773 34.9372ZM157.058 40.0167C156.425 40.0167 155.879 39.8733 155.422 39.5863C154.968 39.2966 154.618 38.8974 154.374 38.3889C154.129 37.8804 154.007 37.298 154.007 36.6417C154.007 35.977 154.132 35.3903 154.382 34.8818C154.632 34.3704 154.985 33.9713 155.439 33.6844C155.894 33.3974 156.429 33.254 157.046 33.254C157.543 33.254 157.986 33.3463 158.375 33.531C158.764 33.7128 159.078 33.9685 159.317 34.298C159.558 34.6275 159.702 35.0125 159.747 35.4528H158.507C158.439 35.146 158.283 34.8818 158.039 34.6602C157.797 34.4386 157.473 34.3278 157.067 34.3278C156.712 34.3278 156.401 34.4216 156.134 34.6091C155.87 34.7937 155.664 35.0579 155.516 35.4017C155.368 35.7426 155.294 36.146 155.294 36.6119C155.294 37.0892 155.367 37.5011 155.512 37.8477C155.656 38.1943 155.861 38.4628 156.125 38.6531C156.392 38.8435 156.706 38.9386 157.067 38.9386C157.308 38.9386 157.527 38.8946 157.723 38.8065C157.922 38.7156 158.088 38.5863 158.222 38.4187C158.358 38.2511 158.453 38.0494 158.507 37.8136H159.747C159.702 38.2369 159.564 38.6148 159.334 38.9471C159.104 39.2795 158.796 39.5409 158.409 39.7312C158.026 39.9216 157.576 40.0167 157.058 40.0167ZM162.384 35.9983V39.8846H161.11V31.1574H162.367V34.4045H162.448C162.601 34.0523 162.836 33.7724 163.151 33.565C163.466 33.3577 163.878 33.254 164.387 33.254C164.836 33.254 165.228 33.3463 165.563 33.531C165.901 33.7156 166.163 33.9912 166.347 34.3577C166.535 34.7213 166.628 35.1758 166.628 35.7213V39.8846H165.354V35.8747C165.354 35.3946 165.231 35.0224 164.984 34.7582C164.736 34.4912 164.393 34.3577 163.952 34.3577C163.651 34.3577 163.381 34.4216 163.143 34.5494C162.907 34.6773 162.721 34.8648 162.584 35.1119C162.451 35.3562 162.384 35.6517 162.384 35.9983ZM171.15 40.0167C170.505 40.0167 169.949 39.879 169.484 39.6034C169.02 39.325 168.663 38.9344 168.41 38.4315C168.16 37.9258 168.035 37.3335 168.035 36.6545C168.035 35.9841 168.16 35.3932 168.41 34.8818C168.663 34.3704 169.015 33.9713 169.466 33.6844C169.921 33.3974 170.452 33.254 171.06 33.254C171.43 33.254 171.788 33.315 172.134 33.4372C172.481 33.5594 172.792 33.7511 173.067 34.0125C173.343 34.2738 173.56 34.6133 173.719 35.031C173.878 35.4457 173.958 35.95 173.958 36.5437V36.9954H168.755V36.0409H172.709C172.709 35.7057 172.641 35.4088 172.505 35.1503C172.368 34.8889 172.177 34.6829 171.93 34.5324C171.685 34.3818 171.398 34.3065 171.069 34.3065C170.711 34.3065 170.398 34.3946 170.131 34.5707C169.867 34.744 169.663 34.9713 169.518 35.2525C169.376 35.531 169.305 35.8335 169.305 36.1602V36.906C169.305 37.3435 169.381 37.7156 169.535 38.0224C169.691 38.3292 169.908 38.5636 170.187 38.7256C170.465 38.8846 170.79 38.9642 171.163 38.9642C171.404 38.9642 171.624 38.9301 171.823 38.8619C172.022 38.7909 172.194 38.6858 172.339 38.5466C172.484 38.4074 172.594 38.2355 172.671 38.031L173.877 38.2483C173.78 38.6034 173.607 38.9145 173.357 39.1815C173.11 39.4457 172.799 39.6517 172.424 39.7994C172.052 39.9443 171.627 40.0167 171.15 40.0167ZM176.646 35.9983V39.8846H175.372V33.3392H176.595V34.4045H176.676C176.826 34.0579 177.062 33.7795 177.383 33.5693C177.707 33.3591 178.115 33.254 178.606 33.254C179.052 33.254 179.443 33.3477 179.778 33.5352C180.113 33.7199 180.373 33.9954 180.558 34.3619C180.742 34.7284 180.835 35.1815 180.835 35.7213V39.8846H179.561V35.8747C179.561 35.4003 179.437 35.0295 179.19 34.7625C178.943 34.4926 178.603 34.3577 178.171 34.3577C177.876 34.3577 177.613 34.4216 177.383 34.5494C177.156 34.6773 176.975 34.8648 176.842 35.1119C176.711 35.3562 176.646 35.6517 176.646 35.9983Z" fill="white"/>
<path d="M21.415 27.8555L21.415 44.2706C21.415 47.032 19.1765 49.2706 16.415 49.2706L4.99989 49.2706C2.23846 49.2706 -0.000109557 47.032 -0.000109436 44.2706L-0.000108937 32.8555C-0.000108817 30.094 2.23847 27.8555 4.99989 27.8555L21.415 27.8555Z" fill="white"/>
<mask id="mask0_50_41" style="mask-type:alpha" maskUnits="userSpaceOnUse" x="8" y="5" width="37" height="37">
<path d="M25.4258 16.0214L25.4258 41.374L44.0815 41.374L44.0815 16.0214L25.4258 16.0214Z" fill="#ED681E"/>
<path d="M8.08105 23.8386L8.08106 5.01925L44.2262 5.01925L44.2262 23.8386L8.08105 23.8386Z" fill="#ED681E"/>
</mask>
<g mask="url(#mask0_50_41)">
<path d="M39.0977 5.01929C41.8591 5.01929 44.0977 7.25786 44.0977 10.0193L44.0977 36.3601C44.0977 39.1216 41.8591 41.3601 39.0977 41.3601L12.7568 41.3601C9.99537 41.3601 7.7568 39.1216 7.7568 36.3601L7.7568 10.0193C7.7568 7.25786 9.99537 5.01929 12.7568 5.01929L39.0977 5.01929Z" fill="white"/>
</g>
</svg>
