<svg width="50" height="50" viewBox="0 0 50 50" fill="none" xmlns="http://www.w3.org/2000/svg">
<g clip-path="url(#clip0_2347_15652)">
<path d="M24.9023 49.8047C38.5254 49.8047 49.8047 38.501 49.8047 24.9023C49.8047 11.2793 38.501 0 24.8779 0C11.2793 0 0 11.2793 0 24.9023C0 38.501 11.3037 49.8047 24.9023 49.8047ZM24.9023 45.6543C13.3789 45.6543 4.1748 36.4258 4.1748 24.9023C4.1748 13.3789 13.3545 4.15039 24.8779 4.15039C36.4014 4.15039 45.6543 13.3789 45.6543 24.9023C45.6543 36.4258 36.4258 45.6543 24.9023 45.6543ZM20.1172 24.9268L11.6943 16.5527C11.5723 16.7725 11.499 17.3584 11.499 18.2129V31.5918C11.499 32.4219 11.5723 33.0322 11.7432 33.3008L20.1172 24.9268ZM24.9023 26.1963C25.3174 26.1963 25.7568 26.0498 26.2207 25.5859L36.8896 14.917C36.5723 14.6729 35.8643 14.4531 34.8389 14.4531H14.917C13.8916 14.4531 13.208 14.6729 12.8906 14.917L23.5596 25.5859C24.0479 26.0742 24.4873 26.1963 24.9023 26.1963ZM29.5898 24.9268L37.9639 33.3008C38.1348 33.0322 38.2324 32.4219 38.2324 31.5918V18.2129C38.2324 17.3584 38.1348 16.7725 38.0127 16.5527L29.5898 24.9268ZM24.8779 28.125C23.999 28.125 23.3154 27.8076 22.3877 26.9531L21.6064 26.2451L12.9395 34.8877C13.2324 35.1562 13.916 35.3271 14.917 35.3271H34.8145C35.8398 35.3271 36.499 35.1562 36.792 34.8877L28.1494 26.2451L27.3682 26.9531C26.416 27.8076 25.7568 28.125 24.8779 28.125Z" fill="#84AF8C"/>
</g>
<defs>
<clipPath id="clip0_2347_15652">
<rect width="49.8047" height="49.8291" fill="white"/>
</clipPath>
</defs>
</svg>
