<svg width="87" height="87" viewBox="0 0 87 87" fill="none" xmlns="http://www.w3.org/2000/svg">
<path d="M43.4999 87.0003C67.2971 87.0003 87 67.307 87 43.5217C87 19.7788 67.2544 0.0429688 43.4573 0.0429688C19.7029 0.0429688 0 19.7788 0 43.5217C0 67.307 19.7456 87.0003 43.4999 87.0003ZM25.3751 63.1296C20.769 63.1296 18.4662 60.9131 18.4662 56.2669V34.3996C18.4662 29.796 20.769 27.5369 25.3751 27.5369H30.0661V25.2776C30.0661 21.7823 32.3692 19.6936 35.9942 19.6936H51.0058C54.6308 19.6936 56.9339 21.7823 56.9339 25.2776V27.5369H61.625C66.2308 27.5369 68.5764 29.796 68.5764 34.3996V56.2669C68.5764 60.9131 66.2308 63.1296 61.625 63.1296H25.3751ZM34.3308 27.5369H52.7118V25.4908C52.7118 24.3398 51.9867 23.6579 50.7926 23.6579H36.2927C35.0559 23.6579 34.3308 24.3398 34.3308 25.4908V27.5369ZM33.0941 47.2728C33.0941 48.4663 33.8618 49.2335 35.0559 49.2335H39.5764V53.7519C39.5764 54.9028 40.3867 55.6702 41.5382 55.6702H45.4618C46.6559 55.6702 47.4235 54.9028 47.4235 53.7519V49.2335H51.9441C53.1382 49.2335 53.9059 48.4663 53.9059 47.2728V43.2659C53.9059 42.115 53.1382 41.3477 51.9441 41.3477H47.4235V36.8294C47.4235 35.6785 46.6559 34.9111 45.4618 34.9111H41.5382C40.3867 34.9111 39.5764 35.6785 39.5764 36.8294V41.3477H35.0559C33.8618 41.3477 33.0941 42.115 33.0941 43.2659V47.2728Z" fill="#84AF8C"/>
</svg>
