<svg width="35" height="35" viewBox="0 0 35 35" fill="none" xmlns="http://www.w3.org/2000/svg">
<path d="M25.7851 32.4953H16.7289C16.1765 32.4953 15.6734 32.3258 15.2523 32.0414C14.2679 31.3688 13.9562 30.0563 14.3882 28.9461C15.3945 26.3594 18.7961 17.1555 18.7414 11.5063H23.7726C29.039 17.582 29.2742 29.6406 29.2742 29.6406C29.2742 32.107 27.3218 32.4953 25.7851 32.4953Z" stroke="#3CC74A" stroke-miterlimit="10" stroke-linecap="round" stroke-linejoin="round"/>
<path d="M23.7724 11.5063C23.7724 11.5063 23.6575 7.35547 30.2091 8.74454L27.2341 5.93907C26.2935 5.18438 25.1286 4.77969 23.92 4.77969H13.8247V7.99532C13.8247 7.99532 18.7356 7.67813 18.7356 11.5008" stroke="#3CC74A" stroke-miterlimit="10" stroke-linecap="round" stroke-linejoin="round"/>
<path d="M13.8247 5.25549H11.938V7.08752H13.8247" stroke="#3CC74A" stroke-miterlimit="10" stroke-linecap="round" stroke-linejoin="round"/>
<path d="M10.1118 8.01172L8.96338 8.47656" stroke="#3CC74A" stroke-miterlimit="10" stroke-linecap="round" stroke-linejoin="round"/>
<path d="M6.84678 9.60315L5.69287 10.068" stroke="#3CC74A" stroke-miterlimit="10" stroke-linecap="round" stroke-linejoin="round"/>
<path d="M5.69287 2.5047L6.84678 2.96954" stroke="#3CC74A" stroke-miterlimit="10" stroke-linecap="round" stroke-linejoin="round"/>
<path d="M8.96338 4.0961L10.1118 4.56094" stroke="#3CC74A" stroke-miterlimit="10" stroke-linecap="round" stroke-linejoin="round"/>
<path d="M4.79053 6.17422H5.92803" stroke="#3CC74A" stroke-miterlimit="10" stroke-linecap="round" stroke-linejoin="round"/>
<path d="M7.82568 6.17422H8.96318" stroke="#3CC74A" stroke-miterlimit="10" stroke-linecap="round" stroke-linejoin="round"/>
<path d="M15.318 8.08829C15.318 8.08829 15.8539 11.8344 13.5625 13.6883C13.5625 13.6883 17.4672 13.1359 17.4125 8.85391" stroke="#3CC74A" stroke-miterlimit="10" stroke-linecap="round" stroke-linejoin="round"/>
<path d="M14.8201 22.307C14.8201 22.307 14.1966 24.7953 12.5833 28.618C12.0693 29.8375 12.2115 31.2047 12.9005 32.2602" stroke="#3CC74A" stroke-miterlimit="10" stroke-linecap="round" stroke-linejoin="round"/>
</svg>
