<svg width="87" height="87" viewBox="0 0 87 87" fill="none" xmlns="http://www.w3.org/2000/svg">
<circle cx="43.5" cy="43.5" r="43.5" fill="#84AF8C"/>
<g clip-path="url(#clip0_2253_3288)">
<path d="M34.0878 40.7763C33.3636 40.7763 32.7429 40.1801 32.7429 39.4605C32.7429 38.7204 33.3636 38.1036 34.0878 38.1036H52.9153C53.6394 38.1036 54.2601 38.7204 54.2601 39.4605C54.2601 40.1801 53.6394 40.7763 52.9153 40.7763H34.0878ZM34.0878 48.301C33.3429 48.301 32.7429 47.7047 32.7429 46.9646C32.7429 46.2245 33.3429 45.6488 34.0878 45.6488H52.9153C53.6601 45.6488 54.2601 46.2245 54.2601 46.9646C54.2601 47.7047 53.6601 48.301 52.9153 48.301H34.0878ZM34.0878 56.2369C33.3636 56.2369 32.7429 55.6201 32.7429 54.9005C32.7429 54.181 33.3429 53.5848 34.0878 53.5848H43.5636C44.3085 53.5848 44.8878 54.181 44.8878 54.9005C44.8878 55.6201 44.2878 56.2369 43.5636 56.2369H34.0878ZM32.5153 67.2155H54.4877C58.7705 67.2155 60.9016 65.0773 60.9016 60.7599V29.5715C60.9016 25.254 58.7705 23.1159 54.6946 23.1159H54.2188C54.2188 23.1981 54.2188 23.3009 54.2188 23.3831V25.8091C54.2188 28.3996 52.4601 30.2294 49.8947 30.2294H37.1085C34.5429 30.2294 32.7843 28.3996 32.7843 25.8091V23.3831C32.7843 23.3009 32.7843 23.1981 32.7843 23.1159H32.3085C28.2326 23.1159 26.1016 25.254 26.1016 29.5715V60.7599C26.1016 65.0773 28.2326 67.2155 32.5153 67.2155ZM37.1085 27.8445H49.8947C51.0946 27.8445 51.8188 27.0838 51.8188 25.8091V23.6504C51.8188 22.3757 51.0946 21.615 49.8947 21.615H47.9912C47.8464 19.2918 45.9016 17.4004 43.5015 17.4004C41.1015 17.4004 39.1567 19.2918 39.0119 21.615H37.1085C35.9085 21.615 35.1843 22.3757 35.1843 23.6504V25.8091C35.1843 27.0838 35.9085 27.8445 37.1085 27.8445ZM43.5015 23.5682C42.5085 23.5682 41.7015 22.7458 41.7015 21.7795C41.7015 20.7721 42.5085 19.9703 43.5015 19.9703C44.4946 19.9703 45.3015 20.7721 45.3015 21.7795C45.3015 22.7458 44.4946 23.5682 43.5015 23.5682Z" fill="white"/>
</g>
<defs>
<clipPath id="clip0_2253_3288">
<rect width="34.8" height="52.2" fill="white" transform="translate(26.1016 17.4004)"/>
</clipPath>
</defs>
</svg>
