<svg width="263" height="248" viewBox="0 0 263 248" fill="none" xmlns="http://www.w3.org/2000/svg">
<path d="M70.8812 248C75.5351 248 78.9956 245.61 84.6041 240.352L127.681 200.912H208.348C243.907 200.912 263 181.312 263 146.296V54.7507C263 19.734 243.907 0.0146484 208.348 0.0146484H54.6526C19.0926 0.0146484 0 19.6145 0 54.7507V146.296C0 181.432 19.0926 200.912 54.6526 200.912H60.261V235.69C60.261 243.1 64.0795 248 70.8812 248ZM101.668 129.206C72.9099 100.523 54.6526 63.953 76.3704 42.2021C76.7284 41.724 77.2057 41.2459 78.041 40.7679C86.2747 34.6728 93.7924 33.2388 98.9235 40.5289L114.078 61.9214C119.209 69.2115 118.016 73.6334 112.408 79.4894L107.634 84.6285C105.964 86.3016 106.561 88.4528 107.396 89.7674C109.782 93.9503 115.749 101.479 122.551 108.291C129.591 115.224 136.631 120.96 140.927 123.588C142.717 124.545 145.104 124.784 146.536 123.35L151.309 118.57C156.798 112.952 161.572 111.758 168.851 116.897C178.874 123.947 184.841 128.13 190.688 132.194C197.847 137.691 196.296 146.057 190.688 152.272C190.09 153.109 189.494 153.944 188.659 154.782C166.941 176.293 130.426 158.127 101.668 129.206Z" fill="#84AF8C"/>
</svg>
